{
	"asset":{
		"generator":"Khronos glTF Blender I/O v4.1.62",
		"version":"2.0"
	},
	"scene":0,
	"scenes":[
		{
			"name":"Scene",
			"nodes":[
				8
			]
		}
	],
	"nodes":[
		{
			"name":"black_krinkle",
			"translation":[
				-0.7203320860862732,
				1.2300816774368286,
				0.793642520904541
			]
		},
		{
			"name":"foil_gold",
			"scale":[
				0.9504709243774414,
				0.4106031656265259,
				0.26221561431884766
			],
			"translation":[
				0.38106489181518555,
				-0.21748065948486328,
				0.06791561841964722
			]
		},
		{
			"name":"foil_silver",
			"translation":[
				-0.7442159652709961,
				1.782751441001892,
				1.1638050079345703
			]
		},
		{
			"mesh":0,
			"name":"shiny_panel",
			"rotation":[
				0,
				0.6087613701820374,
				0,
				0.7933533787727356
			],
			"translation":[
				-0.11670398712158203,
				-9.767104148864746,
				-0.8090617656707764
			]
		},
		{
			"name":"tex_01",
			"rotation":[
				0,
				0.6087613701820374,
				0,
				0.7933533787727356
			],
			"translation":[
				-0.1152334213256836,
				-7.321314811706543,
				-0.7576432228088379
			]
		},
		{
			"mesh":1,
			"name":"tex_01b",
			"rotation":[
				0,
				0.6087613701820374,
				0,
				0.7933533787727356
			],
			"translation":[
				-0.1152334213256836,
				-7.321314811706543,
				-0.7576432228088379
			]
		},
		{
			"name":"tex_01c",
			"rotation":[
				0,
				0.6087613701820374,
				0,
				0.7933533787727356
			],
			"translation":[
				-0.1152334213256836,
				-7.321314811706543,
				-0.7576432228088379
			]
		},
		{
			"mesh":2,
			"name":"tex_01d",
			"rotation":[
				0,
				0.7313537001609802,
				0,
				0.6819983720779419
			],
			"translation":[
				4.0919084548950195,
				-1.1913628578186035,
				0.3950403928756714
			]
		},
		{
			"children":[
				0,
				1,
				2,
				3,
				4,
				5,
				6,
				7
			],
			"mesh":3,
			"name":"_root"
		}
	],
	"materials":[
		{
			"doubleSided":true,
			"name":"shiny_panel",
			"pbrMetallicRoughness":{
				"baseColorFactor":[
					0.800000011920929,
					0.800000011920929,
					0.800000011920929,
					1
				],
				"metallicFactor":0,
				"roughnessFactor":0.5
			}
		},
		{
			"doubleSided":true,
			"name":"tex_01",
			"pbrMetallicRoughness":{
				"baseColorFactor":[
					0.800000011920929,
					0.800000011920929,
					0.800000011920929,
					1
				],
				"metallicFactor":0,
				"roughnessFactor":0.5
			}
		},
		{
			"doubleSided":true,
			"name":"tex_01.001",
			"pbrMetallicRoughness":{
				"baseColorFactor":[
					0.800000011920929,
					0.800000011920929,
					0.800000011920929,
					1
				],
				"metallicFactor":0,
				"roughnessFactor":0.5
			}
		}
	],
	"meshes":[
		{
			"name":"Default.018",
			"primitives":[
				{
					"attributes":{
						"POSITION":0,
						"NORMAL":1,
						"TEXCOORD_0":2
					},
					"indices":3,
					"material":0
				}
			]
		},
		{
			"name":"Default.023",
			"primitives":[
				{
					"attributes":{
						"POSITION":4,
						"NORMAL":5,
						"TEXCOORD_0":6
					},
					"indices":7,
					"material":1
				}
			]
		},
		{
			"name":"Default.008",
			"primitives":[
				{
					"attributes":{
						"POSITION":8,
						"NORMAL":9,
						"TEXCOORD_0":10
					},
					"indices":11,
					"material":2
				},
				{
					"attributes":{
						"POSITION":12,
						"NORMAL":13,
						"TEXCOORD_0":14
					},
					"indices":15,
					"material":1
				},
				{
					"attributes":{
						"POSITION":16,
						"NORMAL":17,
						"TEXCOORD_0":18
					},
					"indices":19
				}
			]
		},
		{
			"name":"Cube.004",
			"primitives":[
				{
					"attributes":{
						"POSITION":20,
						"NORMAL":21
					},
					"indices":22
				}
			]
		}
	],
	"accessors":[
		{
			"bufferView":0,
			"componentType":5126,
			"count":851,
			"max":[
				0.03483903408050537,
				6.146251678466797,
				2.540290355682373
			],
			"min":[
				-0.05090495944023132,
				-6.220298767089844,
				-2.538909673690796
			],
			"type":"VEC3"
		},
		{
			"bufferView":1,
			"componentType":5126,
			"count":851,
			"type":"VEC3"
		},
		{
			"bufferView":2,
			"componentType":5126,
			"count":851,
			"type":"VEC2"
		},
		{
			"bufferView":3,
			"componentType":5123,
			"count":2730,
			"type":"SCALAR"
		},
		{
			"bufferView":4,
			"componentType":5126,
			"count":1900,
			"max":[
				0.21477337181568146,
				7.71038293838501,
				3.9478163719177246
			],
			"min":[
				-0.27907049655914307,
				-8.666088104248047,
				-2.553638219833374
			],
			"type":"VEC3"
		},
		{
			"bufferView":5,
			"componentType":5126,
			"count":1900,
			"type":"VEC3"
		},
		{
			"bufferView":6,
			"componentType":5126,
			"count":1900,
			"type":"VEC2"
		},
		{
			"bufferView":7,
			"componentType":5123,
			"count":6765,
			"type":"SCALAR"
		},
		{
			"bufferView":8,
			"componentType":5126,
			"count":5032,
			"max":[
				0.6272158026695251,
				1.6547517776489258,
				0.9314597845077515
			],
			"min":[
				-0.7145740389823914,
				-0.1589369773864746,
				-0.657863974571228
			],
			"type":"VEC3"
		},
		{
			"bufferView":9,
			"componentType":5126,
			"count":5032,
			"type":"VEC3"
		},
		{
			"bufferView":10,
			"componentType":5126,
			"count":5032,
			"type":"VEC2"
		},
		{
			"bufferView":11,
			"componentType":5123,
			"count":18417,
			"type":"SCALAR"
		},
		{
			"bufferView":12,
			"componentType":5126,
			"count":1296,
			"max":[
				0.10300318896770477,
				2.220893383026123,
				-0.8685002326965332
			],
			"min":[
				-0.7842742204666138,
				2.043017864227295,
				-1.5343338251113892
			],
			"type":"VEC3"
		},
		{
			"bufferView":13,
			"componentType":5126,
			"count":1296,
			"type":"VEC3"
		},
		{
			"bufferView":14,
			"componentType":5126,
			"count":1296,
			"type":"VEC2"
		},
		{
			"bufferView":15,
			"componentType":5123,
			"count":3636,
			"type":"SCALAR"
		},
		{
			"bufferView":16,
			"componentType":5126,
			"count":1885,
			"max":[
				0.3327840566635132,
				2.102264165878296,
				-0.7971364855766296
			],
			"min":[
				-0.10312581807374954,
				1.1594871282577515,
				-1.5563026666641235
			],
			"type":"VEC3"
		},
		{
			"bufferView":17,
			"componentType":5126,
			"count":1885,
			"type":"VEC3"
		},
		{
			"bufferView":18,
			"componentType":5126,
			"count":1885,
			"type":"VEC2"
		},
		{
			"bufferView":19,
			"componentType":5123,
			"count":3162,
			"type":"SCALAR"
		},
		{
			"bufferView":20,
			"componentType":5126,
			"count":8,
			"max":[
				0.5000002384185791,
				0.5,
				0.5000002980232239
			],
			"min":[
				-0.5000001788139343,
				-0.5,
				-0.5000001788139343
			],
			"type":"VEC3"
		},
		{
			"bufferView":21,
			"componentType":5126,
			"count":8,
			"type":"VEC3"
		},
		{
			"bufferView":22,
			"componentType":5123,
			"count":36,
			"type":"SCALAR"
		}
	],
	"bufferViews":[
		{
			"buffer":0,
			"byteLength":10212,
			"byteOffset":0,
			"target":34962
		},
		{
			"buffer":0,
			"byteLength":10212,
			"byteOffset":10212,
			"target":34962
		},
		{
			"buffer":0,
			"byteLength":6808,
			"byteOffset":20424,
			"target":34962
		},
		{
			"buffer":0,
			"byteLength":5460,
			"byteOffset":27232,
			"target":34963
		},
		{
			"buffer":0,
			"byteLength":22800,
			"byteOffset":32692,
			"target":34962
		},
		{
			"buffer":0,
			"byteLength":22800,
			"byteOffset":55492,
			"target":34962
		},
		{
			"buffer":0,
			"byteLength":15200,
			"byteOffset":78292,
			"target":34962
		},
		{
			"buffer":0,
			"byteLength":13530,
			"byteOffset":93492,
			"target":34963
		},
		{
			"buffer":0,
			"byteLength":60384,
			"byteOffset":107024,
			"target":34962
		},
		{
			"buffer":0,
			"byteLength":60384,
			"byteOffset":167408,
			"target":34962
		},
		{
			"buffer":0,
			"byteLength":40256,
			"byteOffset":227792,
			"target":34962
		},
		{
			"buffer":0,
			"byteLength":36834,
			"byteOffset":268048,
			"target":34963
		},
		{
			"buffer":0,
			"byteLength":15552,
			"byteOffset":304884,
			"target":34962
		},
		{
			"buffer":0,
			"byteLength":15552,
			"byteOffset":320436,
			"target":34962
		},
		{
			"buffer":0,
			"byteLength":10368,
			"byteOffset":335988,
			"target":34962
		},
		{
			"buffer":0,
			"byteLength":7272,
			"byteOffset":346356,
			"target":34963
		},
		{
			"buffer":0,
			"byteLength":22620,
			"byteOffset":353628,
			"target":34962
		},
		{
			"buffer":0,
			"byteLength":22620,
			"byteOffset":376248,
			"target":34962
		},
		{
			"buffer":0,
			"byteLength":15080,
			"byteOffset":398868,
			"target":34962
		},
		{
			"buffer":0,
			"byteLength":6324,
			"byteOffset":413948,
			"target":34963
		},
		{
			"buffer":0,
			"byteLength":96,
			"byteOffset":420272,
			"target":34962
		},
		{
			"buffer":0,
			"byteLength":96,
			"byteOffset":420368,
			"target":34962
		},
		{
			"buffer":0,
			"byteLength":72,
			"byteOffset":420464,
			"target":34963
		}
	],
	"buffers":[
		{
			"byteLength":420536,
			"uri":"Aura_27.bin"
		}
	]
}
